<svg width="1544" height="500" viewBox="0 0 1544 500" fill="none" xmlns="http://www.w3.org/2000/svg">
  <defs>
    <linearGradient id="bbg" x1="0" y1="0" x2="1544" y2="500" gradientUnits="userSpaceOnUse">
      <stop offset="0" stop-color="#3D54D8"/>
      <stop offset="0.55" stop-color="#5A53E8"/>
      <stop offset="1" stop-color="#7A3FF2"/>
    </linearGradient>
    <linearGradient id="bsheet" x1="0" y1="0" x2="1" y2="1">
      <stop offset="0" stop-color="#FFFFFF"/>
      <stop offset="1" stop-color="#EEF1FF"/>
    </linearGradient>
    <filter id="bshadow" x="-40%" y="-40%" width="180%" height="180%">
      <feDropShadow dx="0" dy="14" stdDeviation="26" flood-color="#14173A" flood-opacity="0.35"/>
    </filter>
  </defs>

  <rect width="1544" height="500" fill="url(#bbg)"/>

  <!-- Soft decorative blobs -->
  <circle cx="1320" cy="90" r="220" fill="#FFFFFF" opacity="0.06"/>
  <circle cx="120" cy="470" r="180" fill="#FFFFFF" opacity="0.05"/>

  <!-- Artwork: duplicate-to-draft, right side -->
  <g transform="translate(1080,110)">
    <rect x="36" y="24" width="200" height="252" rx="22" fill="#FFFFFF" opacity="0.34"/>
    <g filter="url(#bshadow)">
      <path d="M86 52 h150 a22 22 0 0 1 22 22 v206 a22 22 0 0 1 -22 22 H86 a22 22 0 0 1 -22 -22 V92 z"
            fill="url(#bsheet)"/>
      <path d="M86 52 v28 a12 12 0 0 1 -12 12 H46 z" fill="#C9D2FF"/>
    </g>
    <g fill="#8DA0E8">
      <rect x="92" y="138" width="118" height="14" rx="7"/>
      <rect x="92" y="170" width="140" height="14" rx="7"/>
      <rect x="92" y="202" width="92" height="14" rx="7"/>
    </g>
    <circle cx="244" cy="252" r="46" fill="#22C55E" stroke="#FFFFFF" stroke-width="9"/>
    <path d="M244 230 v44 M222 252 h44" stroke="#FFFFFF" stroke-width="11" stroke-linecap="round"/>
  </g>

  <!-- Wordmark -->
  <text x="96" y="232" font-family="'Helvetica Neue',Arial,sans-serif" font-size="92" font-weight="800" fill="#FFFFFF" letter-spacing="-2">Save As Draft</text>
  <text x="100" y="300" font-family="'Helvetica Neue',Arial,sans-serif" font-size="38" font-weight="500" fill="#D7DCFF">Clone any post or page into a new draft — in one click.</text>

  <!-- Accent pill -->
  <rect x="100" y="338" width="318" height="52" rx="26" fill="#FFFFFF" opacity="0.14"/>
  <text x="128" y="372" font-family="'Helvetica Neue',Arial,sans-serif" font-size="26" font-weight="600" fill="#FFFFFF">Block editor · No setup</text>
</svg>
